<svg id="Layer_1" data-name="Layer 1" xmlns="http://www.w3.org/2000/svg" viewBox="0 0 136.63 20"><title>Artboard 1</title><path d="M6.73,9.64a8.62,8.62,0,0,1,1.51.1,1.74,1.74,0,0,1,1.17,1.42,3,3,0,0,1-.09.82,26.84,26.84,0,0,1-1.68,3.25c-.54-.87-1.8-3.33-2.24-4.29a2.57,2.57,0,0,1-.28-.9C5.12,9.74,5.72,9.64,6.73,9.64Zm-7.17,0a1.65,1.65,0,0,1,1.29,1c1.55,2.84,3.1,6,4.61,9.06a1,1,0,0,0,.73.19,1.07,1.07,0,0,0,.73-.19c.72-1.36,2.62-5,3.44-6.41,1,1.74,2.59,4.93,3.25,6.41a1,1,0,0,0,.73.19,1,1,0,0,0,.72-.19q2-4.39,4.23-8.69c.51-1,.73-1.27,1.77-1.47l.44-.07c.26-.26.19-.85-.09-1-.69.05-1.51.08-2.44.08-.78,0-1.54,0-2.58-.08-.32.11-.32.76-.12,1l.53.1c.54.11.79.25.79.39a3.56,3.56,0,0,1-.29,1c-.5,1.27-1,2.61-1.76,4.19-.7-1.32-1.58-3.09-2.15-4.4a2.19,2.19,0,0,1-.25-.84c0-.14.44-.28,1.17-.42l.47-.07c.23-.12.25-.93-.1-1-1.86.05-3.72.08-5.58.08H2.72c-1.33,0-2.34,0-3.63-.08-.32.13-.32.73-.1,1Z"/><path d="M25.93,9.46A1.48,1.48,0,0,1,27.61,11c0,.27-.07.55-.22.63a2.93,2.93,0,0,1-1.3.24H24.92c-1,0-1.45,0-1.45-.41a2.46,2.46,0,0,1,2.47-2Zm0,10.43a6.21,6.21,0,0,0,5.53-3.12.7.7,0,0,0-.82-.63,3.28,3.28,0,0,1-2.94,1.42c-2.94,0-4.46-2-4.46-4,0-.43.07-.49.8-.49h6c1,0,1.14-.38,1.14-.9,0-2.1-1.77-3.93-5.05-3.93-3.94,0-6.81,2.68-6.81,6.12C19.34,17.29,21.64,19.89,25.9,19.89ZM41.44,9.64a8.81,8.81,0,0,1,1.52.1,1.76,1.76,0,0,1,1.17,1.42A2.73,2.73,0,0,1,44,12a28.15,28.15,0,0,1-1.67,3.25c-.55-.87-1.8-3.33-2.24-4.29a2.66,2.66,0,0,1-.29-.9C39.83,9.74,40.43,9.64,41.44,9.64Zm-7.17,0a1.66,1.66,0,0,1,1.3,1c1.82,3.35,3.23,6.25,4.61,9.06a1,1,0,0,0,.73.19,1,1,0,0,0,.72-.19c.73-1.36,2.62-5,3.44-6.41,1,1.74,2.59,4.93,3.25,6.41a1,1,0,0,0,.73.19,1,1,0,0,0,.72-.19q2-4.39,4.24-8.69c.5-1,.72-1.27,1.76-1.47l.45-.07c.25-.26.18-.85-.1-1-.7.05-1.51.08-2.43.08s-1.73,0-2.59-.08c-.32.11-.32.76-.12,1l.53.1c.54.11.79.25.79.39A3.79,3.79,0,0,1,52,11c-.51,1.27-1,2.61-1.77,4.19-.7-1.32-1.58-3.09-2.15-4.4a2.19,2.19,0,0,1-.25-.84c0-.14.44-.28,1.17-.42l.47-.07c.22-.12.25-.93-.1-1-2,.05-3.6.08-5.58.08H37.43c-1.21,0-2.42,0-3.63-.08-.31.13-.31.73-.09,1Z"/><path d="M62.3,9.46c1.79,0,2.68,2.29,2.72,4.94,0,2.46-.58,4.23-2.38,4.23s-2.87-2.1-2.87-5,1.14-4.2,2.53-4.2Zm0,10.43c3.88,0,7.26-1.89,7.26-5.88S66.21,8.2,62.49,8.2s-7.3,2.16-7.27,6.06S58.54,19.89,62.3,19.89Z"/><path d="M74.94,10.51c.2,0,.48,0,1.2.55a1.86,1.86,0,0,0,1.23.49,1.79,1.79,0,0,0,2-1.77,1.65,1.65,0,0,0-1.74-1.61c-1.32,0-2.23.9-3.09,1.36-.25,0-.32-.13-.32-.33s.07-.62.12-1.17a.66.66,0,0,0-.56-.25,23,23,0,0,1-4.61,1.65.59.59,0,0,0,0,.82l.45.24c.59.33.59.66.59,1.75v4.12c0,1.91-.12,2.15-1.17,2.24l-.6,0a.67.67,0,0,0,0,1c1.24-.06,2.48-.09,3.72-.08,1.48,0,2.75,0,4.27.08a.68.68,0,0,0,0-1l-1-.08c-1.05-.08-1.17-.3-1.17-2.21v-4.2c0-1,.16-1.65.6-1.65"/><path d="M87.33,18.56l-.41.08a.63.63,0,0,0,.12.95c.89-.05,2-.08,3.89-.08s3,0,4,.08c.32-.1.38-.76.13-.95l-.47-.08a4,4,0,0,1-1.86-.63,43,43,0,0,1-4.13-5.21.9.9,0,0,1-.23-.47.54.54,0,0,1,.18-.35,19.07,19.07,0,0,1,2.12-1.59,5.62,5.62,0,0,1,2.12-1l1-.19a.68.68,0,0,0-.13-1,52.86,52.86,0,0,1-6,.39h-.75c-.32.11-.35.71-.07,1l.79.11c.29,0,.6.13.6.27s-.15.47-.75,1.09l-1.33,1.35a2.5,2.5,0,0,1-1.83.76c-.34,0-.45-.08-.45-.38V4.18c0-1.73,0-2.87.11-4A.76.76,0,0,0,83.45,0a37.84,37.84,0,0,1-4.83,1.52.57.57,0,0,0,0,.82l.53.28c.63.33.63.63.63,1.72v12c0,1.91-.12,2.13-1.26,2.24l-.6.06a.67.67,0,0,0,0,1c1.28-.06,2.57-.09,3.85-.08,1.45,0,2.78,0,3.79.08a.67.67,0,0,0,0-1l-.5-.06c-1.11-.11-1.24-.33-1.24-2.24V14.77c0-.52.16-.66.38-.66a.94.94,0,0,1,.8.4l2.24,3a3,3,0,0,1,.53.88c0,.1-.19.15-.5.21"/><path d="M103.47,19.6c-3.7,0-6.65-2.18-6.65-5.28S99.68,9,103.58,9c3.73,0,6.56,2.23,6.56,5.32S107.28,19.6,103.47,19.6Zm0-9.94c-1.8,0-2.33,1.15-2.33,4.88,0,3.16.62,4.38,2.33,4.38s2.31-1.13,2.31-4.38C105.8,10.81,105.24,9.66,103.49,9.66Z"/><path d="M123.7,19a19.63,19.63,0,0,0-3.9.56V18.16a6.76,6.76,0,0,1-4.28,1.44c-2.45,0-3.93-1.14-3.93-3.17V11.18c0-1-.24-1.24-1.45-1.41V9.24h5.56v7.28c0,1.22.59,1.66,1.65,1.66a3.53,3.53,0,0,0,2.42-1v-6c0-1-.32-1.29-1.8-1.37V9.24h5.91V17c0,1,.39,1.31,1.69,1.35v.5Z"/><path d="M134.81,17.09a4.69,4.69,0,0,1-4.37,2.46c-2,0-3.31-.87-3.31-2.33v-7h-1.56V9.61a16,16,0,0,0,4.93-4h.74V9.24H134v1h-2.8v6.5c0,.87.32,1.3,1.15,1.3.62,0,1.09-.32,1.68-1.15Z"/></svg>